<svg width="12" height="12" viewBox="0 0 12 12" fill="none" xmlns="http://www.w3.org/2000/svg">
<path d="M6.00644 12.0065C5.83615 12.0075 5.66942 11.9578 5.52751 11.8637C5.38561 11.7695 5.27495 11.6352 5.20964 11.478C5.14434 11.3207 5.12736 11.1475 5.16085 10.9806C5.19435 10.8136 5.27681 10.6604 5.39772 10.5405L9.94168 6.00509L5.39772 1.46971C5.25727 1.3057 5.18387 1.09472 5.19221 0.878947C5.20054 0.663173 5.28999 0.458489 5.44268 0.3058C5.59537 0.15311 5.80005 0.0636613 6.01583 0.0553269C6.2316 0.0469925 6.44257 0.120387 6.60659 0.260843L11.7507 5.40495C11.9104 5.56558 12 5.78288 12 6.00938C12 6.23588 11.9104 6.45318 11.7507 6.61381L6.60659 11.7579C6.4469 11.9163 6.23136 12.0056 6.00644 12.0065Z" fill="#45108A"/>
<path d="M0.862337 12.0064C0.692046 12.0074 0.525318 11.9577 0.383409 11.8635C0.241501 11.7694 0.130842 11.6351 0.0655401 11.4778C0.000238442 11.3206 -0.016747 11.1474 0.0167494 10.9804C0.0502458 10.8135 0.132706 10.6603 0.253618 10.5403L4.79758 6.00496L0.253618 1.46958C0.0921755 1.30814 0.00147809 1.08917 0.0014781 0.860859C0.0014781 0.632545 0.0921755 0.413582 0.253618 0.25214C0.41506 0.0906974 0.634023 1.70107e-09 0.862337 0C1.09065 -1.70107e-09 1.30961 0.0906974 1.47106 0.25214L6.61516 5.39624C6.77484 5.55688 6.86447 5.77418 6.86447 6.00067C6.86447 6.22717 6.77484 6.44447 6.61516 6.60511L1.47106 11.7492C1.39165 11.8302 1.29696 11.8947 1.19247 11.9388C1.08798 11.983 0.97577 12.0059 0.862337 12.0064Z" fill="#45108A"/>
</svg>
