<svg width="653" height="645" viewBox="0 0 653 645" fill="none" xmlns="http://www.w3.org/2000/svg">
<path fill-rule="evenodd" clip-rule="evenodd" d="M328.347 63.3556V126.712L322.944 132.064L317.54 137.416V160.507V183.598L326.11 192.176L334.68 200.754L334.44 225.893C334.22 249.009 334.074 251.058 332.625 251.336C331.213 251.609 331.049 250.743 331.049 242.998C331.049 238.014 331.49 233.648 332.092 232.684C334.292 229.158 330.108 226.213 327.45 229.417C326.55 230.503 326.616 231.199 327.79 232.992C328.841 234.597 329.248 237.333 329.248 242.807C329.248 249.562 329.056 250.447 327.499 250.854C326.537 251.106 325.524 251.085 325.247 250.809C324.322 249.883 324.703 216.483 325.645 215.9C326.141 215.593 326.546 214.353 326.546 213.142C326.546 211.389 326.083 210.942 324.267 210.942C321.575 210.942 320.423 213.187 321.901 215.556C322.593 216.666 322.944 222.838 322.944 233.916V250.606H320.692H318.441V225.211C318.441 203.058 318.627 199.61 319.901 198.201C322.657 195.152 318.812 191.254 315.912 194.156C314.686 195.384 314.619 195.96 315.532 197.423C316.342 198.72 316.64 206.12 316.64 224.902V250.606H312.137H307.634V236.359V222.113L310.786 219.055L313.938 215.997V177.16V138.322L308.084 132.515L302.231 126.708V97.2117C302.231 78.5199 302.56 67.5122 303.131 67.1588C305.657 65.5957 302.896 60.754 300.094 61.8312C298.491 62.4469 298.086 66.2664 299.529 67.1588C300.1 67.5122 300.429 78.6705 300.429 97.6625V127.609L306.283 133.416L312.137 139.223V177.153V215.083L308.535 218.604L304.932 222.125V236.366C304.932 250.056 304.862 250.606 303.111 250.606C301.339 250.606 301.298 250.147 301.535 233.293L301.78 215.98L304.032 215.448C307.085 214.728 307.258 210.63 304.253 210.203C302.911 210.012 302.049 210.47 301.711 211.555C301.429 212.457 300.823 213.9 300.364 214.76C299.904 215.621 299.529 224.039 299.529 233.466C299.529 250.005 299.466 250.606 297.728 250.606C295.973 250.606 295.927 250.005 295.927 227.345V204.084L298.897 201.202C300.529 199.618 302.715 198.321 303.753 198.321C306.036 198.321 307.168 195.875 305.702 194.107C304.219 192.319 300.964 192.992 300.58 195.166C300.404 196.158 298.855 198.432 297.137 200.22L294.013 203.471L294.095 227.038L294.177 250.606H292.125L290.073 250.607L290.188 225.14L290.303 199.674L298.969 190.58L307.634 181.486V159.617V137.749L301.78 131.679L295.927 125.61V115.143C295.927 109.137 296.31 104.439 296.827 104.119C298.13 103.313 297.932 100.453 296.491 99.2554C293.715 96.9494 290.312 100.944 292.753 103.644C293.821 104.825 294.126 107.549 294.126 115.937V126.712L299.529 132.064L304.932 137.416V159.477V181.537L296.377 190.253L287.822 198.97V224.788V250.606H285.57H283.319V225.123V199.639L292.324 190.659L301.33 181.679V159.096V136.515L295.927 131.163C290.299 125.588 289.279 122.766 291.566 119.1C293.776 115.557 289.579 112.633 286.907 115.855C285.982 116.971 286.045 117.525 287.247 118.855C288.058 119.753 288.722 121.887 288.722 123.599C288.722 126.207 289.597 127.578 294.126 132.064L299.529 137.416V159.096V180.777L290.523 189.758L281.518 198.738V224.672C281.518 247.124 281.337 250.606 280.167 250.606C278.999 250.606 278.816 247.273 278.816 226.022V201.439L270.711 193.363C262.878 185.559 262.606 185.15 262.606 181.193C262.606 177.252 262.896 176.809 270.261 169.475L277.915 161.852V151.293C277.915 145.226 278.298 140.497 278.816 140.177C280.207 139.316 279.879 135.475 278.366 134.893C277.623 134.608 276.407 134.608 275.664 134.893C274.15 135.475 273.822 139.316 275.214 140.177C275.727 140.495 276.114 145.076 276.114 150.842V160.95L268.459 168.573L260.805 176.196V181.193V186.19L268.91 194.265L277.015 202.34V226.473V250.606H274.763H272.512V237.744V224.882L263.056 215.449L253.6 206.016V200.106C253.6 194.216 253.586 194.183 249.143 189.803C246.531 187.227 244.574 184.443 244.415 183.076C244.204 181.26 243.644 180.743 241.893 180.743C240.124 180.743 239.582 181.258 239.364 183.144C239.15 184.999 239.56 185.688 241.165 186.17C242.308 186.513 245.168 188.662 247.521 190.947C251.767 195.068 251.799 195.142 251.799 201.008V206.918L261.255 216.351L270.711 225.784V238.706V251.627L268.234 251.342C265.824 251.065 265.75 250.886 265.498 244.747L265.24 238.436L250.039 223.112C241.678 214.683 234.703 207.019 234.539 206.08C234.039 203.244 231.392 202.135 229.542 203.988C227.693 205.84 228.799 208.489 231.632 208.989C232.57 209.154 240.126 216.046 248.422 224.304L263.506 239.318V244.913V250.507L259.229 250.782L254.951 251.057L254.676 255.339L254.402 259.621H248.813H243.224L228.08 244.442C219.75 236.094 212.46 228.318 211.879 227.16C210.51 224.433 209.131 224.033 207.327 225.838C205.428 227.74 206.911 230.774 209.739 230.774C211.133 230.774 216.399 235.441 227.033 246.099L242.323 261.424H248.412C254.306 261.424 254.501 261.496 254.501 263.677V265.931H244.343H234.186L228.384 260.071L222.583 254.212H200.471H178.36L171.198 261.424C167.259 265.39 163.398 268.635 162.618 268.635C159.364 268.635 157.644 273.565 160.514 274.667C162.393 275.389 164.892 273.83 164.904 271.926C164.91 271.121 168.142 267.211 172.087 263.238L179.261 256.015H200.422H221.585L227.592 261.982L233.598 267.948L244.05 267.793C254.04 267.646 254.501 267.72 254.501 269.489C254.501 271.247 253.987 271.34 244.312 271.34C234.169 271.34 234.114 271.328 231.536 268.635L228.948 265.931H211.543C199.328 265.931 193.609 265.6 192.364 264.822C190.903 263.908 190.327 263.976 189.101 265.203C186.175 268.131 190.105 271.946 193.178 269.162C194.599 267.875 197.141 267.682 211.507 267.773L228.185 267.878L230.705 270.51C233.21 273.128 233.282 273.143 243.862 273.143H254.501V275.396V277.65H241.045C233.046 277.65 227.364 277.284 227.033 276.749C226.173 275.356 222.336 275.684 221.754 277.199C221.47 277.943 221.47 279.16 221.754 279.904C222.336 281.419 226.173 281.747 227.033 280.354C227.364 279.819 233.046 279.453 241.045 279.453C254.398 279.453 254.501 279.468 254.501 281.481L254.502 283.509L233.477 283.253L212.451 282.997L209.893 280.323L207.334 277.65H194.882C187.011 277.65 181.817 277.266 180.761 276.606C178.548 275.222 176.151 276.234 176.151 278.551C176.151 280.869 178.548 281.881 180.761 280.497C181.809 279.841 186.9 279.453 194.424 279.453H206.418L209.472 282.608L212.527 285.763H233.514C253.9 285.763 254.501 285.815 254.501 287.566C254.501 289.355 253.9 289.369 179.303 289.369C126.65 289.369 104.106 289.08 104.106 288.408C104.106 287.879 102.992 287.575 101.629 287.732C99.8544 287.936 99.0709 288.593 98.8647 290.049C98.5134 292.525 100.932 293.703 103.313 292.216C104.543 291.447 124.67 291.172 179.741 291.172C253.9 291.172 254.501 291.186 254.501 292.975C254.501 294.735 253.9 294.778 229.042 294.778H203.584L194.613 303.792L185.641 312.807H165.335H145.03L139.228 306.947L133.427 301.088H114.767C103.298 301.088 95.8928 300.741 95.5506 300.186C93.989 297.658 89.152 300.422 90.2282 303.227C90.8433 304.832 94.659 305.236 95.5506 303.792C95.8919 303.24 103.149 302.891 114.317 302.891H132.526L138.327 308.75L144.129 314.61H165.267H186.405L195.557 305.595L204.708 296.581H229.604H254.501V298.834V301.088H229.493H204.485L195.513 310.103L186.542 319.117H165.786H145.03L139.228 313.258L133.427 307.398H125.039C119.113 307.398 116.047 307.002 114.597 306.051C111.836 304.24 108.967 306.072 109.91 309.044C110.547 311.054 113.457 311.73 114.462 310.103C114.771 309.601 118.909 309.201 123.773 309.201H132.526L138.327 315.061L144.129 320.92H165.786H187.443L196.414 311.905L205.385 302.891H229.943H254.501V305.145V307.398H229.042H203.583L195.063 315.962L186.544 324.526H164.886H143.228L137.427 318.666L131.625 312.807H100.305C78.7235 312.807 68.9839 312.508 68.9839 311.846C68.9839 311.317 67.8698 311.013 66.5073 311.17C64.5423 311.396 64.0307 311.92 64.0307 313.708C64.0307 315.497 64.5423 316.021 66.5073 316.247C67.8698 316.404 68.9839 316.1 68.9839 315.571C68.9839 314.909 78.5785 314.61 99.8057 314.61H130.628L136.558 320.501L142.489 326.392L164.898 326.396L187.306 326.399L195.929 317.8L204.552 309.201H229.526C253.9 309.201 254.501 309.244 254.501 311.004C254.501 312.765 253.9 312.807 229.042 312.807H203.583L195.063 321.371L186.544 329.935H164.433H142.323L136.977 324.526L131.63 319.117H68.8398C27.9513 319.117 5.85593 318.803 5.4939 318.216C4.63386 316.823 0.796543 317.151 0.214777 318.666C-0.069802 319.41 -0.069802 320.627 0.214777 321.371C0.796543 322.886 4.63386 323.214 5.4939 321.822C5.85593 321.235 27.8018 320.92 68.3895 320.92H130.729L136.076 326.329L141.423 331.738H164.433H187.444L195.964 323.174L204.483 314.61H229.492C253.9 314.61 254.501 314.653 254.501 316.413C254.501 318.082 253.9 318.216 246.383 318.216C241.795 318.216 237.54 317.762 236.596 317.172C234.383 315.788 231.986 316.8 231.986 319.117C231.986 321.435 234.383 322.446 236.596 321.063C237.54 320.472 241.795 320.019 246.383 320.019C254.441 320.019 254.501 320.035 254.501 322.272V324.526H237.809C224.289 324.526 220.714 324.262 218.998 323.137C217.077 321.877 216.741 321.886 215.387 323.241C212.689 325.941 216.064 329.512 219.363 327.449C220.623 326.662 226.104 326.329 237.827 326.329C253.9 326.329 254.501 326.394 254.501 328.132C254.501 329.892 253.9 329.935 228.822 329.935C210.931 329.935 202.638 329.618 201.474 328.891C199.134 327.428 196.864 328.564 196.864 331.198C196.864 333.693 199.819 335.201 201.679 333.655C202.382 333.072 212.516 332.62 228.653 332.454L254.502 332.188L254.501 336.921L254.501 341.654H240.268H226.035L222.981 338.499L219.926 335.343H181.127H142.328L136.526 341.203L130.725 347.062H101.258C82.5851 347.062 71.5883 346.733 71.2353 346.161C70.3752 344.768 66.5379 345.096 65.9561 346.612C65.6716 347.355 65.6716 348.572 65.9561 349.316C66.5379 350.831 70.3752 351.16 71.2353 349.767C71.5883 349.195 82.7355 348.865 101.709 348.865H131.625L137.427 343.006L143.228 337.146H181.127H219.025L222.08 340.302L225.135 343.457H239.818H254.501V345.73V348.003L237.165 347.758C219.951 347.515 219.827 347.499 219.541 345.483C219.128 342.573 216.3 341.258 214.448 343.112C212.818 344.744 212.993 346.187 214.93 347.083C215.643 347.413 217.132 348.152 218.24 348.726C219.557 349.406 226.189 349.767 237.377 349.767C253.9 349.767 254.501 349.83 254.501 351.57C254.501 353.326 253.9 353.373 231.262 353.373H208.024L205.146 350.4C203.563 348.765 202.268 346.787 202.268 346.003C202.268 344.003 200.081 342.414 198.281 343.105C196.039 343.966 196.766 348.336 199.208 348.685C200.25 348.834 202.457 350.355 204.113 352.066L207.124 355.176H230.812C253.9 355.176 254.501 355.222 254.501 356.979C254.501 358.74 253.9 358.781 228.591 358.781H202.682L194.163 350.218L185.643 341.654H163.535H141.427L135.626 347.513L129.824 353.373H119.27C113.204 353.373 108.478 352.99 108.159 352.471C107.298 351.078 103.461 351.407 102.879 352.922C101.63 356.181 104.655 358.573 107.396 356.494C108.602 355.579 112.038 355.225 119.892 355.204L130.725 355.176L136.526 349.316L142.328 343.457H163.501H184.674L193.246 351.999L201.817 360.541L228.159 360.614L254.501 360.686V363.115L254.5 365.542L228.694 365.386L202.888 365.23L194.232 356.596L185.575 347.964H163.049H140.522L135.176 353.373C129.606 359.006 126.788 360.027 123.125 357.738C120.911 356.354 118.515 357.365 118.515 359.683C118.515 362.001 120.911 363.012 123.125 361.628C124.044 361.054 126.13 360.584 127.762 360.584C130.194 360.584 131.693 359.609 136.076 355.176L141.423 349.767H163.081H184.741L193.712 358.781L202.684 367.796H228.592C251.022 367.796 254.501 367.977 254.501 369.148C254.501 370.317 251.122 370.5 229.491 370.5H204.481L196.414 378.614C188.91 386.161 188.093 386.727 184.706 386.727C181.334 386.727 180.501 386.16 173.45 379.064L165.834 371.402H155.652C148.133 371.402 144.931 371.049 143.415 370.054C141.697 368.928 141.093 368.902 139.733 369.898C137.416 371.594 138.623 375.008 141.54 375.008C142.745 375.008 143.731 374.602 143.731 374.106C143.731 373.556 147.865 373.205 154.332 373.205H164.934L172.549 380.867C180.097 388.462 180.204 388.53 184.706 388.53C189.227 388.53 189.283 388.493 197.315 380.417L205.382 372.303H229.941H254.501V374.595V376.886L241.321 376.76L228.141 376.635L219.016 385.737L209.892 394.84H204.212C198.574 394.84 198.494 394.875 193.421 399.7C190.609 402.372 187.498 404.711 186.508 404.896C185.279 405.125 184.707 405.944 184.707 407.473C184.707 409.259 185.161 409.714 186.945 409.714C188.478 409.714 189.286 409.145 189.505 407.911C189.681 406.919 191.697 404.182 193.986 401.826C198.143 397.549 198.154 397.544 204.253 397.544H210.358L220.047 388.098L229.735 378.652L242.118 378.633L254.501 378.614V381.318V384.022H248.412H242.323L227.073 399.308C218.685 407.715 211.031 414.712 210.064 414.858C207.202 415.289 206.057 417.951 207.929 419.823C209.778 421.675 212.425 420.567 212.925 417.731C213.09 416.792 219.975 409.23 228.225 400.925L243.224 385.825H248.813H254.402L254.676 390.107C254.965 394.61 254.866 394.533 260.579 394.736L263.506 394.84V400.507V406.176L247.913 421.692C239.337 430.226 231.661 437.209 230.855 437.209C228.919 437.209 228.136 438.611 228.837 440.823C229.746 443.687 233.618 443.205 234.324 440.138C234.687 438.564 240.433 432.067 250.068 422.334L265.24 407.01L265.498 400.699C265.735 394.934 265.932 394.364 267.784 394.101C269.788 393.816 269.81 393.933 269.81 404.494V415.175L263.957 420.982L258.103 426.789V448.923V471.056L265.266 478.184C269.206 482.105 272.549 486.11 272.696 487.085C273.128 489.961 275.784 491.112 277.658 489.235C279.508 487.385 278.402 484.737 275.568 484.231C274.63 484.064 270.722 480.828 266.883 477.04L259.904 470.154V448.923V427.691L265.732 421.91L271.559 416.129L271.81 405.259C272.018 396.31 272.3 394.389 273.412 394.389C274.52 394.389 274.808 396.258 275.015 404.787L275.268 415.185L272.539 417.801L269.81 420.418V437.775C269.81 448.373 269.46 455.349 268.91 455.689C267.586 456.508 267.814 459.362 269.302 460.599C270.262 461.397 271.075 461.416 272.454 460.677C274.646 459.503 274.847 457.705 272.962 456.139C271.85 455.215 271.611 452.045 271.611 438.169V421.319L274.313 418.729L277.015 416.138V405.038V393.938H279.266H281.518V407.858C281.518 416.165 281.155 422.002 280.617 422.334C279.174 423.227 279.579 427.046 281.182 427.662C283.984 428.739 286.745 423.898 284.219 422.334C283.682 422.002 283.319 416.165 283.319 407.858C283.319 394.54 283.396 393.938 285.12 393.938C286.871 393.938 286.921 394.54 286.921 415.405V436.871L284.219 439.462L281.518 442.053V454.956C281.518 463.492 281.192 467.858 280.558 467.858C280.029 467.858 279.725 468.973 279.882 470.337C280.086 472.114 280.742 472.898 282.197 473.105C284.67 473.456 285.848 471.035 284.362 468.652C283.709 467.606 283.319 462.53 283.319 455.067V443.154L285.992 440.393L288.664 437.632L288.754 416.31C288.829 398.097 289.043 394.909 290.214 394.459C290.969 394.17 291.955 394.161 292.405 394.44C292.887 394.737 293.225 425.618 293.225 469.295C293.225 536.281 293.081 543.865 291.768 545.871C290.593 547.664 290.528 548.36 291.427 549.445C294.085 552.65 298.269 549.705 296.069 546.178C295.301 544.947 295.026 524.799 295.026 469.674C295.026 395.441 295.041 394.84 296.827 394.84C298.586 394.84 298.628 395.441 298.628 420.323V445.807L307.634 454.787L316.64 463.767V484.094V504.42L310.786 510.227L304.932 516.034V534.712C304.932 546.192 304.586 553.605 304.032 553.948C302.589 554.84 302.993 558.66 304.596 559.275C307.399 560.353 310.16 555.511 307.634 553.948C307.082 553.606 306.733 546.342 306.733 535.163V516.936L312.587 511.128L318.441 505.321V484.162V463.003L309.435 453.842L300.429 444.682V419.761V394.84H302.681H304.932V419.873V444.907L313.488 453.435L322.043 461.963V483.645V505.326L316.64 510.678L311.236 516.03V524.551C311.236 531.144 310.906 533.438 309.776 534.687C307.02 537.736 310.865 541.634 313.765 538.732C314.991 537.504 315.058 536.928 314.145 535.465C313.475 534.391 313.037 530.38 313.037 525.313V516.936L318.891 511.128L324.745 505.321V483.755V462.188L315.739 453.027L306.733 443.867V419.353V394.84H308.985H311.236V420.324V445.809L319.792 454.336L328.347 462.864V484.093V505.321L322.493 511.128L316.64 516.936V548.107C316.64 569.309 316.327 579.592 315.663 580.257C314.002 581.919 315.064 585.467 317.319 585.787C319.793 586.139 320.97 583.718 319.484 581.335C318.746 580.153 318.441 570.605 318.441 548.751V517.837L324.295 512.03L330.148 506.223V484.093V461.963L321.593 453.435L313.037 444.907V419.873C313.037 395.441 313.081 394.84 314.839 394.84C316.597 394.84 316.64 395.441 316.64 420.324V445.809L325.195 454.336L333.75 462.864V484.546V506.227L328.347 511.579L322.944 516.931V581.242C322.944 623.886 323.247 645.365 323.844 644.995C324.43 644.632 324.745 622.365 324.745 581.136V517.833L330.148 512.481L335.552 507.129V484.546V461.963L326.996 453.435L318.441 444.907V420.023C318.441 406.338 318.683 394.898 318.979 394.602C319.276 394.305 320.086 394.281 320.78 394.548C322.386 395.164 322.568 410.249 321 412.762C319.618 414.978 320.628 417.376 322.944 417.376C325.259 417.376 326.269 414.978 324.887 412.762C323.422 410.414 323.492 395.113 324.97 394.597C328.095 393.506 328.347 394.789 328.347 411.768C328.347 425.496 328.1 428.775 326.975 430.021C324.392 432.877 327.589 436.368 330.7 434.09C332.095 433.069 332.173 432.556 331.238 430.504C330.508 428.899 330.148 422.474 330.148 411.024C330.148 394.54 330.211 393.938 331.949 393.938C333.71 393.938 333.75 394.54 333.75 420.478C333.75 437.2 333.417 447.225 332.85 447.575C331.419 448.461 331.805 451.633 333.419 452.253C334.228 452.564 335.646 452.345 336.571 451.766C338.2 450.748 338.253 451.597 338.253 478.467V506.219L344.557 512.481L350.861 518.742V547.993C350.861 572.934 350.659 577.468 349.489 578.762C347.047 581.462 350.451 585.457 353.227 583.151C354.668 581.953 354.866 579.093 353.563 578.287C352.992 577.934 352.662 566.776 352.662 547.784V517.837L346.809 512.03L340.955 506.223V468.139V430.057L344.107 426.902L347.259 423.747V409.398C347.259 395.667 347.339 395.029 349.115 394.564C350.146 394.295 351.157 394.561 351.388 395.165C351.618 395.764 351.694 403.508 351.558 412.376L351.312 428.5L348.672 429.964C345.408 431.773 344.956 432.972 346.831 434.849C348.784 436.803 351.762 435.247 351.762 432.272C351.762 431.08 352.167 429.853 352.662 429.546C353.213 429.205 353.563 422.142 353.563 411.367C353.563 395.669 353.719 393.805 354.988 394.293C355.771 394.594 356.582 394.84 356.789 394.84C356.996 394.84 357.165 405.102 357.165 417.644V440.448L353.75 443.787C351.872 445.623 349.667 447.125 348.85 447.125C346.881 447.125 346.109 448.524 346.828 450.791C347.737 453.658 352.125 452.839 352.484 449.734C352.634 448.443 354.154 446.031 355.861 444.374L358.966 441.362V418.101C358.966 395.441 359.013 394.84 360.767 394.84C362.526 394.84 362.569 395.441 362.569 420.324V445.809L354.013 454.336L345.458 462.864V485.445V508.026L351.312 513.833L357.165 519.64V530.205C357.165 536.276 356.782 541.007 356.265 541.327C354.822 542.22 355.226 546.039 356.829 546.655C359.632 547.732 362.393 542.89 359.867 541.327C359.346 541.005 358.966 536.126 358.966 529.754V518.739L353.113 512.931L347.259 507.124V485.445V463.766L355.814 455.238L364.37 446.71V420.775V394.84H366.621H368.873V420.775V446.71L360.317 455.238L351.762 463.766V486.349V508.931L357.165 514.283C362.793 519.858 363.813 522.68 361.526 526.346C360.143 528.562 361.154 530.96 363.469 530.96C365.785 530.96 366.795 528.562 365.413 526.346C364.839 525.426 364.37 523.338 364.37 521.704C364.37 519.27 363.395 517.769 358.966 513.382L353.563 508.03V486.349V464.667L362.118 456.139L370.674 447.611V421.226C370.674 395.441 370.715 394.84 372.475 394.84C374.233 394.84 374.276 395.441 374.276 419.874V444.909L382.381 452.984C389.921 460.496 390.486 461.314 390.486 464.704C390.486 468.079 389.92 468.913 382.831 475.971L375.177 483.594V494.095C375.177 502.331 374.885 504.84 373.826 505.72C371.928 507.296 372.146 509.086 374.381 510.283C375.894 511.094 376.577 511.014 377.693 509.898C378.844 508.745 378.907 508.069 378.038 506.161C377.435 504.837 376.978 499.66 376.978 494.164V484.496L384.632 476.873C392.22 469.318 392.287 469.21 392.287 464.704C392.287 460.178 392.251 460.123 384.169 452.069L376.049 443.979L376.289 419.185C376.515 395.722 376.617 394.389 378.198 394.389C379.753 394.389 379.859 395.278 379.731 407.326L379.593 420.262L389.092 429.911L398.591 439.561V445.342C398.591 451.106 398.606 451.14 403.309 455.907C405.904 458.537 408.032 461.343 408.037 462.144C408.05 464.04 410.552 465.596 412.428 464.875C415.305 463.769 413.576 458.844 410.309 458.844C409.523 458.844 406.97 456.903 404.636 454.531L400.392 450.218V443.8V437.383L391.612 429.256L382.831 421.128L382.381 407.982L381.931 394.836L384.858 394.838L387.784 394.84V400.935V407.029L403.054 422.295C411.453 430.691 418.443 438.353 418.589 439.321C418.735 440.289 419.587 441.528 420.483 442.075C421.779 442.865 422.369 442.721 423.375 441.366C424.903 439.307 423.666 436.307 421.289 436.307C420.435 436.307 412.951 429.508 404.66 421.198L389.586 406.089V400.464V394.84H393.638H397.691V390.333V385.825H403.779H409.868L424.854 400.925C433.096 409.23 440.098 416.9 440.414 417.97C441.126 420.389 443.433 421.358 445.128 419.95C447.143 418.276 446.227 415.169 443.62 414.833C442.117 414.64 436.28 409.482 426.059 399.317L410.749 384.09L404.445 383.831C398.685 383.594 398.116 383.397 397.853 381.543C397.568 379.538 397.685 379.515 408.235 379.515H418.906L424.708 385.375L430.509 391.234H452.619H474.729L482.299 383.618C486.462 379.429 490.142 376.17 490.476 376.377C490.811 376.584 491.802 376.228 492.678 375.586C493.784 374.777 494.082 373.82 493.651 372.46C492.612 369.184 487.747 370.521 487.747 374.082C487.747 374.863 484.598 378.635 480.748 382.466L473.749 389.431H452.628H431.507L425.631 383.619L419.755 377.807L408.959 377.534C399.52 377.296 398.125 377.063 397.861 375.684C397.587 374.253 398.553 374.106 408.263 374.106H418.967L421.556 376.811L424.144 379.515H441.044C452.352 379.515 458.736 379.877 460.336 380.606C462.395 381.545 462.899 381.464 463.946 380.031C466.36 376.727 462.475 373.391 459.584 376.284C458.585 377.284 454.714 377.584 441.709 377.67L425.109 377.78L422.489 375.042L419.868 372.303H408.779H397.691V370.05V367.796H411.212C419.892 367.796 425.33 368.169 426.402 368.84C428.562 370.19 431.012 369.23 431.012 367.033C431.012 364.293 428.93 363.079 426.885 364.627C425.554 365.635 421.991 365.943 411.361 365.964C397.895 365.992 397.573 365.948 397.853 364.121C398.136 362.283 398.534 362.25 419.293 362.349L440.446 362.45L443.201 365.122L445.957 367.796H458.309C466.104 367.796 471.277 368.181 472.331 368.84C474.711 370.327 477.13 369.149 476.778 366.673C476.459 364.416 472.914 363.353 471.253 365.015C470.65 365.619 465.756 365.993 458.475 365.993H446.674L443.62 362.838L440.565 359.683H419.128C398.291 359.683 397.691 359.632 397.691 357.88C397.691 356.091 398.291 356.077 472.835 356.077C521.96 356.077 548.172 356.389 548.536 356.979C549.26 358.151 553.219 358.146 553.944 356.97C555.048 355.183 553.412 352.471 551.23 352.471C550.054 352.471 548.842 352.877 548.536 353.373C548.172 353.962 521.96 354.274 472.835 354.274C398.291 354.274 397.691 354.26 397.691 352.471C397.691 350.711 398.291 350.668 423.149 350.668H448.607L457.578 341.654L466.55 332.639H487.306H508.062L513.864 338.499L519.665 344.358H537.94C550.222 344.358 556.762 344.701 557.884 345.402C560.098 346.786 562.494 345.774 562.494 343.457C562.494 341.139 560.098 340.128 557.884 341.511C556.766 342.211 550.331 342.555 538.391 342.555H520.566L514.764 336.696L508.963 330.836H487.306H465.649L456.678 339.851L447.706 348.865H422.699H397.691V346.612V344.358H423.149H448.607L457.578 335.343L466.55 326.329H487.142H507.735L513.798 332.188L519.862 338.048H528.151C534.102 338.048 537.039 338.44 538.56 339.437C540.481 340.697 540.817 340.687 542.17 339.332C544.869 336.633 541.494 333.062 538.194 335.124C537.12 335.796 533.232 336.245 528.484 336.245H520.566L514.764 330.385L508.963 324.526H487.306H465.649L456.678 333.541L447.706 342.555H422.635H397.566L397.853 340.527L398.141 338.499L423.537 338.26L448.934 338.02L457.757 329.47L466.58 320.92H487.772H508.963L514.764 326.78L520.566 332.639H551.833C571.707 332.639 583.304 332.967 583.658 333.541C584.518 334.933 588.355 334.605 588.937 333.09C589.221 332.346 589.221 331.129 588.937 330.385C588.355 328.87 584.518 328.542 583.658 329.935C583.304 330.507 571.874 330.836 552.332 330.836H521.564L515.687 325.003L509.811 319.169L487.373 319.084L464.933 318.999L456.287 327.622L447.64 336.245H422.665C398.291 336.245 397.691 336.202 397.691 334.442C397.691 332.681 398.292 332.639 423.132 332.635L448.573 332.63L457.128 324.091L465.683 315.552L487.775 315.531L509.868 315.511L515.215 320.92L520.561 326.329H583.675C627.833 326.329 647.081 326.623 647.765 327.307C649.325 328.869 653.001 327.936 653.001 325.976C653.001 323.434 650.282 322.019 648.064 323.405C646.68 324.27 632.033 324.526 583.867 324.526H521.462L516.115 319.117L510.769 313.708H487.891H465.015L456.362 322.286L447.709 330.864L422.937 330.624C400.171 330.404 398.14 330.257 397.862 328.808C397.59 327.394 398.454 327.23 406.192 327.23C411.171 327.23 415.533 327.672 416.495 328.274C418.687 329.644 421.105 328.655 421.105 326.389C421.105 323.789 418.192 322.46 416.051 324.082C414.87 324.978 411.812 325.379 406.021 325.399C397.729 325.427 397.691 325.417 397.691 323.174V320.92H414.955C429.16 320.92 432.489 321.163 433.738 322.294C435.761 324.127 438.216 323.059 438.216 320.345C438.216 317.742 435.934 316.618 433.606 318.073C432.494 318.769 426.223 319.117 414.814 319.117C398.291 319.117 397.691 319.054 397.691 317.314C397.691 315.553 398.291 315.511 423.82 315.511C442.939 315.511 450.424 315.809 451.722 316.62C453.184 317.534 453.759 317.467 454.986 316.24C457.953 313.269 453.966 309.509 450.846 312.336C449.293 313.744 446.761 313.858 423.637 313.572L398.141 313.258L397.869 308.525L397.596 303.792H411.876H426.156L429.211 306.947L432.265 310.103H471.515H510.764L516.565 304.243L522.367 298.384H551.449C571.917 298.384 581.024 298.693 582.2 299.427C584.413 300.811 586.81 299.8 586.81 297.482C586.81 295.164 584.413 294.153 582.2 295.537C581.024 296.272 571.808 296.581 550.999 296.581H521.466L515.665 302.44L509.863 308.3H471.758H433.653L430.795 305.37L427.936 302.44L413.039 301.989C398.431 301.548 398.136 301.499 397.853 299.51L397.566 297.482H414.558C432.042 297.482 433.713 297.804 433.713 301.172C433.713 303.154 436.283 304.123 437.924 302.76C439.935 301.089 439.021 297.981 436.415 297.631C435.177 297.465 433.779 296.958 433.308 296.504C432.838 296.051 424.631 295.679 415.072 295.679C398.291 295.679 397.691 295.617 397.691 293.876C397.691 292.12 398.291 292.073 420.929 292.073H444.167L447.216 295.223C448.894 296.956 450.365 299.044 450.486 299.866C450.727 301.512 452.606 303.01 453.912 302.597C455.386 302.131 456.532 299.576 455.949 298.055C455.638 297.244 454.437 296.581 453.281 296.581C452.062 296.581 449.899 295.261 448.137 293.44L445.096 290.3L421.63 290.059C400.109 289.84 398.14 289.689 397.862 288.242C397.579 286.769 399.277 286.665 423.462 286.665H449.366L458.074 295.228L466.782 303.792H489.223H511.665L517.466 297.933L523.268 292.073H533.822C539.887 292.073 544.614 292.456 544.933 292.975C546.517 295.54 551.184 292.511 550.14 289.594C549.66 288.252 545.728 288.083 544.933 289.369C544.612 289.89 539.769 290.27 533.47 290.27H522.563L516.5 296.13L510.436 301.989H488.943H467.45L458.462 292.953L449.473 283.916L423.807 284.112L398.141 284.308V282.278V280.247L424.257 280.324L450.374 280.399L458.945 288.941L467.517 297.482H490.043H512.57L517.916 292.073C523.485 286.44 526.304 285.419 529.967 287.708C532.401 289.23 534.238 288.134 534.913 284.76C535.655 281.044 533.635 278.472 531.183 280.011C530.325 280.549 529.494 281.861 529.336 282.925C529.1 284.506 528.435 284.862 525.705 284.862C522.815 284.862 521.64 285.593 517.016 290.27L511.669 295.679H490.01H468.351L459.38 286.665L450.408 277.65H424.049C401.22 277.65 397.691 277.469 397.691 276.298C397.691 275.129 401.071 274.945 422.681 274.939L447.672 274.933L455.777 266.866C463.548 259.132 464.051 258.798 467.955 258.759C471.886 258.721 472.293 258.986 479.642 266.382L487.257 274.044H497.44C505.096 274.044 508.149 274.388 509.742 275.433C511.657 276.69 511.998 276.684 513.31 275.371C514.41 274.27 514.536 273.498 513.83 272.179C512.845 270.336 509.846 269.824 508.911 271.34C508.593 271.854 504.017 272.241 498.256 272.241H488.158L480.543 264.579L472.928 256.916L467.955 256.929L462.982 256.942L454.889 265.042L446.797 273.143H422.181H397.566L397.853 271.148C398.136 269.184 398.336 269.157 410.587 269.415L423.033 269.678L432.7 260.142L442.368 250.606H448.203H454.037L458.884 245.693C461.791 242.747 464.662 240.673 466.058 240.51C467.867 240.3 468.385 239.738 468.385 237.986C468.385 236.215 467.871 235.673 465.986 235.454C464.134 235.24 463.445 235.651 462.964 237.257C462.621 238.401 460.474 241.264 458.192 243.62C454.074 247.87 454 247.902 448.14 247.902H442.236L432.813 257.367L423.389 266.832H410.48H397.571L397.856 264.353C398.134 261.939 398.308 261.867 404.491 261.613L410.841 261.352L426.095 246.063C434.484 237.654 442.048 230.774 442.903 230.774C445.279 230.774 446.517 227.774 444.988 225.715C443.981 224.357 443.395 224.215 442.097 225.011C441.201 225.56 440.333 226.777 440.167 227.715C440.002 228.654 433.117 236.217 424.867 244.521L409.868 259.621H403.779H397.691V255.564C397.691 251.683 397.577 251.508 395.063 251.508C390.102 251.508 389.586 250.882 389.586 244.866V239.319L405.129 223.778C413.679 215.231 421.336 208.237 422.144 208.237C424.079 208.237 425.021 205.646 423.677 204.023C421.98 201.978 418.895 202.924 418.586 205.586C418.399 207.191 413.535 212.674 402.601 223.606L386.884 239.319V245.288C386.884 251.09 386.824 251.246 384.739 250.847C382.654 250.448 382.589 250.173 382.443 241.006L382.293 231.574L388.641 225.021L394.989 218.468V196.43V174.393L387.376 166.811C383.188 162.642 379.642 158.391 379.496 157.365C379.154 154.976 375.412 154.29 374.579 156.463C373.836 158.398 375.365 160.908 377.293 160.921C378.097 160.926 382.003 164.161 385.972 168.111L393.188 175.292V196.521V217.751L386.884 224.013L380.58 230.275V240.863C380.58 249.904 380.383 251.375 379.229 250.932C378.139 250.513 377.878 248.458 377.878 240.3C377.878 230.678 377.987 230.084 380.13 228.07L382.381 225.952V208.376C382.381 193.895 382.622 190.534 383.754 189.282C386.195 186.583 382.792 182.588 380.015 184.894C378.589 186.08 378.343 189.307 379.679 189.307C380.249 189.307 380.58 195.865 380.58 207.179C380.58 225.02 380.576 225.054 378.356 227.143C376.262 229.112 376.116 229.873 375.879 240.073C375.634 250.585 375.566 250.914 373.601 251.058C371.581 251.206 371.574 251.159 371.574 237.438C371.574 229.231 371.938 223.443 372.475 223.112C373.778 222.306 373.58 219.446 372.139 218.248C369.362 215.942 365.959 219.937 368.401 222.637C369.498 223.851 369.773 226.786 369.773 237.275C369.773 249.507 369.654 250.427 368.024 250.854C367.062 251.106 366.049 251.085 365.773 250.809C365.496 250.532 365.27 241.123 365.27 229.9V209.492L368.422 206.435L371.574 203.377V190.92C371.574 183.048 371.958 177.85 372.617 176.794C374.817 173.267 370.633 170.322 367.976 173.527C367.076 174.612 367.142 175.308 368.316 177.101C369.467 178.86 369.773 181.755 369.773 190.901V202.475L366.621 205.533L363.469 208.591V229.965C363.469 250.895 363.431 251.329 361.668 250.868C359.885 250.401 359.867 249.638 359.867 175.229C359.867 122.598 360.155 100.062 360.827 100.062C361.356 100.062 361.659 98.9471 361.502 97.5831C361.276 95.6162 360.753 95.1041 358.966 95.1041C357.18 95.1041 356.656 95.6162 356.43 97.5831C356.274 98.9471 356.577 100.062 357.106 100.062C357.778 100.062 358.066 122.628 358.066 175.334C358.066 250.005 358.051 250.606 356.265 250.606C354.507 250.606 354.463 250.005 354.463 225.573V200.541L345.458 191.56L336.452 182.58V161.803V141.026L342.306 135.219L348.16 129.412V110.734C348.16 99.2536 348.506 91.8408 349.06 91.4983C351.586 89.9352 348.825 85.0934 346.022 86.1706C344.419 86.7863 344.015 90.6058 345.458 91.4983C346.01 91.8399 346.358 99.1039 346.358 110.283V128.51L340.505 134.318L334.651 140.125V161.803V183.482L343.657 192.462L352.662 201.442V225.875C352.662 239.312 352.436 250.532 352.16 250.809C351.883 251.085 350.87 251.106 349.908 250.854C348.23 250.414 348.16 249.39 348.16 225.469V200.541L339.154 191.56L330.148 182.58V161.803V141.026L336.002 135.219L341.856 129.412V120.65C341.856 115.781 342.255 111.64 342.756 111.33C344.148 110.47 343.82 106.628 342.306 106.046C341.563 105.761 340.347 105.761 339.604 106.046C338.09 106.628 337.762 110.47 339.154 111.33C339.649 111.637 340.054 115.628 340.054 120.199V128.51L334.201 134.318L328.347 140.125V161.803V183.482L337.353 192.462L346.358 201.442V225.971C346.358 239.729 345.999 250.722 345.539 251.006C345.089 251.285 344.075 251.266 343.287 250.963C342.026 250.479 341.856 247.434 341.856 225.404V200.396L333.3 191.677L324.745 182.959V161.091V139.223L330.598 133.416L336.452 127.609V96.6952C336.452 74.8411 336.757 65.2928 337.495 64.111C338.863 61.9177 337.875 59.4964 335.612 59.4964C333.015 59.4964 331.686 62.4126 333.306 64.5554C334.361 65.95 334.599 71.6941 334.622 96.3878L334.651 126.519L328.347 133.027L322.043 139.534V161.508V183.482L331.049 192.462L340.054 201.442V226.475C340.054 250.906 340.011 251.508 338.253 251.508C336.494 251.508 336.452 250.906 336.452 226.023V200.539L327.897 192.011L319.341 183.483V160.9V138.317L324.745 132.965L330.148 127.614V63.8063C330.148 21.8694 329.839 0 329.248 0C328.656 0 328.347 21.7198 328.347 63.3556ZM334.651 62.7047C334.651 63.4773 335.056 63.8595 335.552 63.553C336.047 63.2465 336.452 62.6146 336.452 62.1476C336.452 61.6807 336.047 61.2993 335.552 61.2993C335.056 61.2993 334.651 61.9322 334.651 62.7047ZM300.429 64.9052C300.429 65.401 300.835 65.8066 301.33 65.8066C301.825 65.8066 302.231 65.401 302.231 64.9052C302.231 64.4094 301.825 64.0037 301.33 64.0037C300.835 64.0037 300.429 64.4094 300.429 64.9052ZM346.358 89.2446C346.358 89.7404 346.764 90.1461 347.259 90.1461C347.754 90.1461 348.16 89.7404 348.16 89.2446C348.16 88.7488 347.754 88.3432 347.259 88.3432C346.764 88.3432 346.358 88.7488 346.358 89.2446ZM358.066 97.3578C358.066 97.8536 358.471 98.2592 358.966 98.2592C359.462 98.2592 359.867 97.8536 359.867 97.3578C359.867 96.862 359.462 96.4563 358.966 96.4563C358.471 96.4563 358.066 96.862 358.066 97.3578ZM294.126 101.361C294.126 102.134 294.531 102.767 295.026 102.767C295.521 102.767 295.927 102.385 295.927 101.918C295.927 101.451 295.521 100.819 295.026 100.513C294.531 100.206 294.126 100.589 294.126 101.361ZM340.505 109.077C340.811 109.573 341.24 109.978 341.458 109.978C341.677 109.978 341.856 109.573 341.856 109.077C341.856 108.581 341.426 108.175 340.902 108.175C340.378 108.175 340.199 108.581 340.505 109.077ZM288.722 117.19C288.722 117.686 289.127 118.091 289.623 118.091C290.118 118.091 290.523 117.686 290.523 117.19C290.523 116.694 290.118 116.288 289.623 116.288C289.127 116.288 288.722 116.694 288.722 117.19ZM276.114 137.924C276.114 138.419 276.519 138.825 277.015 138.825C277.51 138.825 277.915 138.419 277.915 137.924C277.915 137.428 277.51 137.022 277.015 137.022C276.519 137.022 276.114 137.428 276.114 137.924ZM376.077 157.756C376.077 158.251 376.482 158.657 376.978 158.657C377.473 158.657 377.878 158.251 377.878 157.756C377.878 157.26 377.473 156.854 376.978 156.854C376.482 156.854 376.077 157.26 376.077 157.756ZM369.773 174.883C369.773 175.379 370.178 175.785 370.674 175.785C371.169 175.785 371.574 175.379 371.574 174.883C371.574 174.388 371.169 173.982 370.674 173.982C370.178 173.982 369.773 174.388 369.773 174.883ZM240.992 182.997C240.992 183.492 241.397 183.898 241.893 183.898C242.388 183.898 242.793 183.492 242.793 182.997C242.793 182.501 242.388 182.095 241.893 182.095C241.397 182.095 240.992 182.501 240.992 182.997ZM381.078 186.526C380.788 186.995 380.935 187.617 381.404 187.907C381.873 188.197 382.494 188.05 382.784 187.581C383.074 187.111 382.927 186.49 382.458 186.199C381.988 185.909 381.368 186.056 381.078 186.526ZM302.231 195.617C302.231 196.113 302.636 196.518 303.131 196.518C303.627 196.518 304.032 196.113 304.032 195.617C304.032 195.121 303.627 194.716 303.131 194.716C302.636 194.716 302.231 195.121 302.231 195.617ZM317.09 195.617C316.784 196.113 317.189 196.518 317.991 196.518C318.792 196.518 319.197 196.113 318.891 195.617C318.585 195.121 318.18 194.716 317.991 194.716C317.801 194.716 317.396 195.121 317.09 195.617ZM230.683 205.456C230.393 205.926 230.54 206.547 231.009 206.838C231.479 207.128 232.099 206.981 232.389 206.511C232.679 206.042 232.532 205.42 232.063 205.13C231.594 204.84 230.973 204.987 230.683 205.456ZM420.205 205.533C420.205 206.029 420.61 206.435 421.105 206.435C421.601 206.435 422.006 206.029 422.006 205.533C422.006 205.037 421.601 204.632 421.105 204.632C420.61 204.632 420.205 205.037 420.205 205.533ZM303.131 212.745C303.131 213.241 303.536 213.646 304.032 213.646C304.527 213.646 304.932 213.241 304.932 212.745C304.932 212.249 304.527 211.843 304.032 211.843C303.536 211.843 303.131 212.249 303.131 212.745ZM322.944 213.646C322.944 214.142 323.349 214.548 323.844 214.548C324.34 214.548 324.745 214.142 324.745 213.646C324.745 213.15 324.34 212.745 323.844 212.745C323.349 212.745 322.944 213.15 322.944 213.646ZM369.773 220.858C369.773 221.354 370.178 221.759 370.674 221.759C371.169 221.759 371.574 221.354 371.574 220.858C371.574 220.362 371.169 219.956 370.674 219.956C370.178 219.956 369.773 220.362 369.773 220.858ZM208.572 227.566C208.572 228.338 208.977 228.971 209.472 228.971C209.968 228.971 210.373 228.59 210.373 228.123C210.373 227.656 209.968 227.024 209.472 226.717C208.977 226.411 208.572 226.793 208.572 227.566ZM441.818 228.07C441.818 228.565 442.224 228.971 442.719 228.971C443.214 228.971 443.62 228.565 443.62 228.07C443.62 227.574 443.214 227.168 442.719 227.168C442.224 227.168 441.818 227.574 441.818 228.07ZM328.797 230.774C328.491 231.27 328.873 231.675 329.645 231.675C330.417 231.675 331.049 231.27 331.049 230.774C331.049 230.278 330.668 229.873 330.201 229.873C329.735 229.873 329.104 230.278 328.797 230.774ZM464.783 237.986C464.477 238.481 464.859 238.887 465.63 238.887C466.402 238.887 467.034 238.481 467.034 237.986C467.034 237.49 466.653 237.084 466.187 237.084C465.72 237.084 465.089 237.49 464.783 237.986ZM261.705 322.723V387.628H326.546H391.387V322.723V257.818H326.546H261.705V322.723ZM265.307 322.723V384.022H326.546H387.784V322.723V261.424H326.546H265.307V322.723ZM267.109 322.723V382.219H326.546H385.983V322.723V263.227H326.546H267.109V322.723ZM190.158 266.756C189.868 267.225 190.015 267.847 190.484 268.137C190.953 268.427 191.573 268.28 191.863 267.811C192.153 267.341 192.007 266.72 191.537 266.429C191.068 266.139 190.448 266.286 190.158 266.756ZM160.842 272.241C160.842 272.737 161.247 273.143 161.742 273.143C162.238 273.143 162.643 272.737 162.643 272.241C162.643 271.745 162.238 271.34 161.742 271.34C161.247 271.34 160.842 271.745 160.842 272.241ZM510.262 273.143C510.262 273.638 510.667 274.044 511.162 274.044C511.657 274.044 512.063 273.638 512.063 273.143C512.063 272.647 511.657 272.241 511.162 272.241C510.667 272.241 510.262 272.647 510.262 273.143ZM177.952 278.551C177.952 279.047 178.358 279.453 178.853 279.453C179.348 279.453 179.754 279.047 179.754 278.551C179.754 278.056 179.348 277.65 178.853 277.65C178.358 277.65 177.952 278.056 177.952 278.551ZM223.431 278.551C223.125 279.047 223.507 279.453 224.278 279.453C225.05 279.453 225.682 279.047 225.682 278.551C225.682 278.056 225.302 277.65 224.835 277.65C224.369 277.65 223.737 278.056 223.431 278.551ZM100.504 290.27C100.504 290.766 100.909 291.172 101.404 291.172C101.9 291.172 102.305 290.766 102.305 290.27C102.305 289.775 101.9 289.369 101.404 289.369C100.909 289.369 100.504 289.775 100.504 290.27ZM292.775 321.88C284.85 339.735 278.231 354.734 278.066 355.21C277.887 355.723 281.078 356.077 285.878 356.077H293.992L296.946 348.845L299.9 341.613L315.137 341.858L330.372 342.104L333.188 349.081L336.002 356.057L344.428 356.067C350.813 356.074 352.746 355.804 352.404 354.95C351.99 353.917 330.151 305.101 325.182 294.102L323.044 289.369L315.113 289.393L307.184 289.417L292.775 321.88ZM358.966 322.723V356.077H367.071H375.177V322.723V289.369H367.071H358.966V322.723ZM546.284 291.172C546.284 291.668 546.689 292.073 547.185 292.073C547.68 292.073 548.085 291.668 548.085 291.172C548.085 290.676 547.68 290.27 547.185 290.27C546.689 290.27 546.284 290.676 546.284 291.172ZM583.207 297.482C583.207 297.978 583.613 298.384 584.108 298.384C584.603 298.384 585.009 297.978 585.009 297.482C585.009 296.986 584.603 296.581 584.108 296.581C583.613 296.581 583.207 296.986 583.207 297.482ZM452.625 299.789C452.625 300.561 453.031 300.944 453.526 300.637C454.021 300.331 454.426 299.699 454.426 299.232C454.426 298.765 454.021 298.384 453.526 298.384C453.031 298.384 452.625 299.016 452.625 299.789ZM435.514 300.186C435.514 300.682 435.92 301.088 436.415 301.088C436.91 301.088 437.316 300.682 437.316 300.186C437.316 299.691 436.91 299.285 436.415 299.285C435.92 299.285 435.514 299.691 435.514 300.186ZM92.3986 301.989C92.3986 302.485 92.8038 302.891 93.2992 302.891C93.7945 302.891 94.1997 302.485 94.1997 301.989C94.1997 301.494 93.7945 301.088 93.2992 301.088C92.8038 301.088 92.3986 301.494 92.3986 301.989ZM310.817 315.627C308.454 321.264 306.172 326.79 305.748 327.906C304.977 329.934 304.983 329.935 314.861 329.935C320.311 329.935 324.745 329.561 324.745 329.102C324.745 328.643 322.578 323.117 319.929 316.821L315.114 305.374L310.817 315.627ZM111.761 308.3C112.067 308.795 112.496 309.201 112.714 309.201C112.933 309.201 113.112 308.795 113.112 308.3C113.112 307.804 112.682 307.398 112.158 307.398C111.634 307.398 111.455 307.804 111.761 308.3ZM65.3816 313.708C65.3816 314.204 65.7868 314.61 66.2822 314.61C66.7775 314.61 67.1827 314.204 67.1827 313.708C67.1827 313.213 66.7775 312.807 66.2822 312.807C65.7868 312.807 65.3816 313.213 65.3816 313.708ZM452.223 313.632C451.933 314.101 452.08 314.723 452.549 315.013C453.018 315.303 453.638 315.156 453.928 314.686C454.218 314.217 454.072 313.596 453.602 313.305C453.133 313.015 452.513 313.162 452.223 313.632ZM233.788 319.117C233.788 319.613 234.193 320.019 234.688 320.019C235.183 320.019 235.589 319.613 235.589 319.117C235.589 318.621 235.183 318.216 234.688 318.216C234.193 318.216 233.788 318.621 233.788 319.117ZM1.89163 320.019C1.58544 320.514 1.96728 320.92 2.73907 320.92C3.51085 320.92 4.14305 320.514 4.14305 320.019C4.14305 319.523 3.76211 319.117 3.29562 319.117C2.82912 319.117 2.19782 319.523 1.89163 320.019ZM434.614 320.019C434.614 320.514 435.019 320.92 435.514 320.92C436.01 320.92 436.415 320.514 436.415 320.019C436.415 319.523 436.01 319.117 435.514 319.117C435.019 319.117 434.614 319.523 434.614 320.019ZM216.677 325.427C216.677 325.923 217.082 326.329 217.577 326.329C218.073 326.329 218.478 325.923 218.478 325.427C218.478 324.932 218.073 324.526 217.577 324.526C217.082 324.526 216.677 324.932 216.677 325.427ZM648.949 325.427C648.949 325.923 649.354 326.329 649.849 326.329C650.345 326.329 650.75 325.923 650.75 325.427C650.75 324.932 650.345 324.526 649.849 324.526C649.354 324.526 648.949 324.932 648.949 325.427ZM417.053 326.329C417.359 326.825 417.99 327.23 418.457 327.23C418.923 327.23 419.304 326.825 419.304 326.329C419.304 325.833 418.672 325.427 417.9 325.427C417.129 325.427 416.747 325.833 417.053 326.329ZM198.665 330.783C198.665 331.25 199.071 331.882 199.566 332.188C200.061 332.495 200.467 332.113 200.467 331.34C200.467 330.568 200.061 329.935 199.566 329.935C199.071 329.935 198.665 330.316 198.665 330.783ZM585.009 331.738C585.009 332.233 585.616 332.639 586.359 332.639C587.102 332.639 587.71 332.233 587.71 331.738C587.71 331.242 587.102 330.836 586.359 330.836C585.616 330.836 585.009 331.242 585.009 331.738ZM539.08 337.146C539.08 337.642 539.485 338.048 539.98 338.048C540.476 338.048 540.881 337.642 540.881 337.146C540.881 336.651 540.476 336.245 539.98 336.245C539.485 336.245 539.08 336.651 539.08 337.146ZM558.892 343.457C558.892 343.952 559.297 344.358 559.793 344.358C560.288 344.358 560.693 343.952 560.693 343.457C560.693 342.961 560.288 342.555 559.793 342.555C559.297 342.555 558.892 342.961 558.892 343.457ZM215.776 345.26C215.776 345.755 216.181 346.161 216.677 346.161C217.172 346.161 217.577 345.755 217.577 345.26C217.577 344.764 217.172 344.358 216.677 344.358C216.181 344.358 215.776 344.764 215.776 345.26ZM198.665 346.161C198.665 346.657 199.071 347.062 199.566 347.062C200.061 347.062 200.467 346.657 200.467 346.161C200.467 345.665 200.061 345.26 199.566 345.26C199.071 345.26 198.665 345.665 198.665 346.161ZM67.633 347.964C67.9392 348.46 68.5705 348.865 69.037 348.865C69.5035 348.865 69.8844 348.46 69.8844 347.964C69.8844 347.468 69.2522 347.062 68.4804 347.062C67.7086 347.062 67.3268 347.468 67.633 347.964ZM104.556 354.274C104.25 354.77 104.655 355.176 105.457 355.176C106.258 355.176 106.664 354.77 106.357 354.274C106.051 353.778 105.646 353.373 105.457 353.373C105.268 353.373 104.862 353.778 104.556 354.274ZM549.886 355.176C549.886 355.671 550.519 356.077 551.29 356.077C552.062 356.077 552.444 355.671 552.138 355.176C551.832 354.68 551.2 354.274 550.734 354.274C550.267 354.274 549.886 354.68 549.886 355.176ZM120.316 359.683C120.316 360.179 120.721 360.584 121.217 360.584C121.712 360.584 122.117 360.179 122.117 359.683C122.117 359.187 121.712 358.781 121.217 358.781C120.721 358.781 120.316 359.187 120.316 359.683ZM427.409 366.895C427.409 367.39 427.815 367.796 428.31 367.796C428.805 367.796 429.211 367.39 429.211 366.895C429.211 366.399 428.805 365.993 428.31 365.993C427.815 365.993 427.409 366.399 427.409 366.895ZM472.888 366.895C473.194 367.39 473.826 367.796 474.292 367.796C474.759 367.796 475.139 367.39 475.139 366.895C475.139 366.399 474.507 365.993 473.735 365.993C472.964 365.993 472.582 366.399 472.888 366.895ZM140.588 372.318C140.899 372.822 141.531 373.001 141.992 372.715C143.241 371.943 143.009 371.402 141.426 371.402C140.655 371.402 140.277 371.814 140.588 372.318ZM490.449 373.205C490.449 373.701 490.879 374.106 491.403 374.106C491.927 374.106 492.106 373.701 491.8 373.205C491.494 372.709 491.065 372.303 490.846 372.303C490.627 372.303 490.449 372.709 490.449 373.205ZM461.219 377.65C460.934 378.111 461.113 378.743 461.617 379.055C462.12 379.366 462.531 378.989 462.531 378.216C462.531 376.632 461.991 376.4 461.219 377.65ZM335.58 420.306C335.604 441.27 335.842 446.082 336.931 447.522C338.119 449.095 338.253 448.269 338.253 439.367V429.461L341.856 425.94L345.458 422.419V408.63V394.84H340.505H335.552L335.58 420.306ZM186.058 407.46C186.058 407.956 186.463 408.362 186.958 408.362C187.453 408.362 187.859 407.956 187.859 407.46C187.859 406.965 187.453 406.559 186.958 406.559C186.463 406.559 186.058 406.965 186.058 407.46ZM322.043 414.672C322.043 415.168 322.448 415.573 322.944 415.573C323.439 415.573 323.844 415.168 323.844 414.672C323.844 414.176 323.439 413.771 322.944 413.771C322.448 413.771 322.043 414.176 322.043 414.672ZM209.07 417.3C208.78 417.769 208.927 418.391 209.396 418.681C209.865 418.971 210.485 418.824 210.775 418.354C211.065 417.885 210.919 417.264 210.449 416.973C209.98 416.683 209.36 416.83 209.07 417.3ZM442.719 417.376C442.719 417.872 443.124 418.278 443.62 418.278C444.115 418.278 444.52 417.872 444.52 417.376C444.52 416.881 444.115 416.475 443.62 416.475C443.124 416.475 442.719 416.881 442.719 417.376ZM281.518 424.588C281.518 425.084 281.923 425.49 282.418 425.49C282.913 425.49 283.319 425.084 283.319 424.588C283.319 424.092 282.913 423.687 282.418 423.687C281.923 423.687 281.518 424.092 281.518 424.588ZM328.347 431.8C328.347 432.296 328.752 432.701 329.248 432.701C329.743 432.701 330.148 432.296 330.148 431.8C330.148 431.304 329.743 430.898 329.248 430.898C328.752 430.898 328.347 431.304 328.347 431.8ZM347.709 432.701C347.403 433.197 347.785 433.603 348.557 433.603C349.328 433.603 349.961 433.197 349.961 432.701C349.961 432.205 349.58 431.8 349.113 431.8C348.647 431.8 348.015 432.205 347.709 432.701ZM420.205 438.958C420.205 439.425 420.61 440.057 421.105 440.364C421.601 440.67 422.006 440.288 422.006 439.515C422.006 438.743 421.601 438.11 421.105 438.11C420.61 438.11 420.205 438.491 420.205 438.958ZM230.185 439.913C230.185 440.409 230.793 440.814 231.536 440.814C232.279 440.814 232.887 440.409 232.887 439.913C232.887 439.417 232.279 439.011 231.536 439.011C230.793 439.011 230.185 439.417 230.185 439.913ZM333.75 449.829C333.75 450.325 334.131 450.73 334.598 450.73C335.064 450.73 335.696 450.325 336.002 449.829C336.308 449.333 335.926 448.928 335.154 448.928C334.383 448.928 333.75 449.333 333.75 449.829ZM348.61 449.829C348.916 450.325 349.547 450.73 350.014 450.73C350.48 450.73 350.861 450.325 350.861 449.829C350.861 449.333 350.229 448.928 349.457 448.928C348.685 448.928 348.304 449.333 348.61 449.829ZM270.308 457.866C270.018 458.335 270.165 458.956 270.634 459.247C271.103 459.537 271.724 459.39 272.014 458.92C272.304 458.451 272.157 457.829 271.688 457.539C271.219 457.249 270.598 457.396 270.308 457.866ZM410.299 462.449C410.299 462.945 410.704 463.351 411.199 463.351C411.695 463.351 412.1 462.945 412.1 462.449C412.1 461.954 411.695 461.548 411.199 461.548C410.704 461.548 410.299 461.954 410.299 462.449ZM281.518 470.563C281.518 471.058 281.923 471.464 282.418 471.464C282.913 471.464 283.319 471.058 283.319 470.563C283.319 470.067 282.913 469.661 282.418 469.661C281.923 469.661 281.518 470.067 281.518 470.563ZM275.214 487.744C275.214 488.268 275.619 488.448 276.114 488.141C276.61 487.835 277.015 487.405 277.015 487.186C277.015 486.967 276.61 486.789 276.114 486.789C275.619 486.789 275.214 487.219 275.214 487.744ZM374.765 507.46C374.15 508.456 375.57 509.533 376.402 508.7C377.258 507.843 377.098 506.621 376.13 506.621C375.664 506.621 375.05 506.999 374.765 507.46ZM362.569 528.256C362.569 528.752 362.974 529.158 363.469 529.158C363.964 529.158 364.37 528.752 364.37 528.256C364.37 527.76 363.964 527.355 363.469 527.355C362.974 527.355 362.569 527.76 362.569 528.256ZM310.834 536.293C310.544 536.762 310.691 537.383 311.16 537.674C311.629 537.964 312.249 537.817 312.539 537.347C312.829 536.878 312.683 536.257 312.213 535.966C311.744 535.676 311.124 535.823 310.834 536.293ZM357.165 543.581C357.165 544.077 357.57 544.482 358.066 544.482C358.561 544.482 358.966 544.077 358.966 543.581C358.966 543.085 358.561 542.679 358.066 542.679C357.57 542.679 357.165 543.085 357.165 543.581ZM293.225 547.584C293.225 548.357 293.63 548.99 294.126 548.99C294.621 548.99 295.026 548.608 295.026 548.141C295.026 547.675 294.621 547.043 294.126 546.736C293.63 546.43 293.225 546.812 293.225 547.584ZM304.932 556.201C304.932 556.697 305.338 557.103 305.833 557.103C306.328 557.103 306.733 556.697 306.733 556.201C306.733 555.706 306.328 555.3 305.833 555.3C305.338 555.3 304.932 555.706 304.932 556.201ZM350.861 580.541C350.861 581.037 351.266 581.442 351.762 581.442C352.257 581.442 352.662 581.037 352.662 580.541C352.662 580.045 352.257 579.639 351.762 579.639C351.266 579.639 350.861 580.045 350.861 580.541ZM316.64 582.741C316.64 583.514 317.045 584.147 317.54 584.147C318.036 584.147 318.441 583.765 318.441 583.298C318.441 582.831 318.036 582.2 317.54 581.893C317.045 581.587 316.64 581.969 316.64 582.741Z" fill="url(#paint0_radial_0_3282)"/>
<defs>
<radialGradient id="paint0_radial_0_3282" cx="0" cy="0" r="1" gradientUnits="userSpaceOnUse" gradientTransform="translate(326.501 322.5) rotate(89.8644) scale(235.052 265.201)">
<stop stop-color="#9963BE" stop-opacity="0.5"/>
<stop offset="1" stop-color="#250740"/>
</radialGradient>
</defs>
</svg>
