<svg width="20" height="20" viewBox="0 0 20 20" fill="none" xmlns="http://www.w3.org/2000/svg">
<path d="M10 20.0001C15.5137 20.0001 20 15.5142 20 10.0001C20 9.04834 19.8672 8.11043 19.6041 7.2122C19.4745 6.77053 19.0133 6.51678 18.5704 6.64636C18.1282 6.77553 17.8754 7.23845 18.0045 7.68011C18.2225 8.42636 18.3333 9.2072 18.3333 10.0001C18.3333 14.595 14.5949 18.3334 10 18.3334C5.40505 18.3334 1.66667 14.595 1.66667 10.0001C1.66667 5.40511 5.40505 1.66673 10 1.66673C11.6699 1.66673 13.2766 2.15501 14.6462 3.07845C15.0274 3.33584 15.5458 3.2347 15.8028 2.85345C16.06 2.47178 15.9597 1.95381 15.578 1.69668C13.9321 0.586728 12.0034 6.10352e-05 10 6.10352e-05C4.4863 6.10352e-05 0 4.48595 0 10.0001C0 15.5142 4.4863 20.0001 10 20.0001Z" fill="#45108A"/>
<path d="M18.577 1.91095L9.99954 10.488L7.25538 7.74429C6.92986 7.41892 6.40251 7.41892 6.07699 7.74429C5.75168 8.06981 5.75168 8.59715 6.07699 8.92267L9.41033 12.256C9.57335 12.4189 9.78616 12.5001 9.99954 12.5001C10.2129 12.5001 10.4258 12.4189 10.5888 12.256L19.7554 3.08929C20.0807 2.76377 20.0807 2.23648 19.7554 1.91095C19.4299 1.58559 18.9026 1.58559 18.577 1.91095Z" fill="#45108A"/>
</svg>
